#!OML:ASF F:\VICON\USERDATA\INSTALL\Justin_Nancy\Justin_Nancy.ASF
:FULLY-SPECIFIED
:DEGREES
220
root -7.53513 16.8971 4.70741 -112.13 -82.1559 116.247
lowerback 8.92605 -1.49361 -5.43708
upperback -0.412728 -2.48047 1.8323
thorax -5.13503 -1.05944 5.31328
lowerneck -18.2487 -2.8819 -9.56255
upperneck 20.6038 -2.3882 4.13764
head 9.72107 -1.44716 2.69522
rclavicle 1.8487e-014 -3.33958e-014
rhumerus -44.7697 -26.0307 -64.7018
rradius 27.2277
rwrist 9.93515
rhand -12.7658 10.4595
rfingers 7.12502
rthumb 13.319 -19.0949
lclavicle 1.8487e-014 -3.33958e-014
lhumerus -26.6215 5.53729 85.7592
lradius 33.463
lwrist -7.44064
lhand -17.9455 25.2778
lfingers 7.12502
lthumb 8.32295 55.0939
rfemur -39.465 3.91441 16.1712
rtibia 35.2436
rfoot -1.75226 -4.62412
rtoes 24.1015
lfemur 16.2266 2.27235 -29.9124
ltibia 24.7536
lfoot -35.819 -0.270748
ltoes -26.6617
221
root -7.78908 16.9575 4.71622 -113.686 -82.2238 117.435
lowerback 8.99082 -1.37752 -5.34314
upperback -0.326756 -2.3174 1.86187
thorax -5.10438 -0.984686 5.27184
lowerneck -18.0585 -2.97337 -9.5224
upperneck 20.4292 -2.51412 4.01441
head 9.63249 -1.51417 2.6263
rclavicle -5.36719e-015 1.27222e-014
rhumerus -44.3603 -26.1632 -64.9926
rradius 26.9466
rwrist 10.7152
rhand -12.5545 10.3585
rfingers 7.12502
rthumb 13.5226 -19.1824
lclavicle -5.36719e-015 1.27222e-014
lhumerus -27.0658 8.30475 84.6988
lradius 32.412
lwrist -14.3922
lhand -10.1785 19.7792
lfingers 7.12502
lthumb 15.8118 49.1534
rfemur -38.2421 3.61982 16.5027
rtibia 35.3815
rfoot -1.22665 -3.82985
rtoes 25.6115
lfemur 14.3017 2.42339 -29.7244
ltibia 29.0973
lfoot -38.025 -3.37876
ltoes -27.3195
222
root -8.03639 17.0109 4.72735 -114.784 -82.1231 118.179
lowerback 9.08963 -1.23156 -5.36804
upperback -0.268239 -2.13276 1.81487
thorax -5.12313 -0.894272 5.21607
lowerneck -17.6581 -3.04236 -9.42544
upperneck 20.0893 -2.65641 3.9472
head 9.4479 -1.57637 2.56571
rclavicle 4.13472e-014 1.43125e-014
rhumerus -43.93 -25.8551 -65.6737
rradius 26.5814
rwrist 12.0001
rhand -13.9689 10.5446
rfingers 7.12502
rthumb 12.1591 -19.082
lclavicle 4.13472e-014 1.43125e-014
lhumerus -27.5912 8.19919 84.9503
lradius 31.9559
lwrist -14.5666
lhand -9.67763 19.7935
lfingers 7.12502
lthumb 16.2941 49.1289
rfemur -36.9662 3.88663 16.4189
rtibia 35.4385
rfoot -1.15914 -4.16652
rtoes 24.5259
lfemur 12.3732 2.65466 -29.7026
ltibia 33.1518
lfoot -39.8746 -6.57986
ltoes -27.9695
223
root -8.28339 17.071 4.73393 -116.269 -82.5195 119.396
lowerback 9.09401 -1.18009 -4.7665
upperback -0.21782 -2.00179 1.7792
thorax -5.10938 -0.847792 4.8189
lowerneck -17.548 -3.04581 -9.04077
upperneck 20.1686 -2.7304 3.70989
head 9.45111 -1.61175 2.41035
rclavicle 2.18663e-015 1.11319e-014
rhumerus -43.2596 -25.1717 -66.6781
rradius 26.0833
rwrist 13.4243
rhand -16.0753 10.3074
rfingers 7.12502
rthumb 10.1275 -19.4289
lclavicle 2.18663e-015 1.11319e-014
lhumerus -28.0978 7.17112 85.5781
lradius 31.6001
lwrist -11.8642
lhand -14.0443 23.1793
lfingers 7.12502
lthumb 12.0864 52.8102
rfemur -35.6014 4.83846 16.6119
rtibia 35.3658
rfoot -1.62866 -5.25455
rtoes 24.2355
lfemur 10.4199 2.58177 -29.1532
ltibia 37.0326
lfoot -41.6877 -9.45315
ltoes -28.0611
224
root -8.53271 17.1426 4.72567 -117.141 -83.2569 120.134
lowerback 8.92573 -1.24618 -4.22339
upperback -0.18287 -2.01199 2.08681
thorax -4.98322 -0.869141 4.8292
lowerneck -17.6583 -3.053 -9.31428
upperneck 20.3909 -2.64853 3.65778
head 9.54858 -1.6062 2.4491
rclavicle -9.93923e-016 1.59028e-015
rhumerus -42.7503 -25.0757 -66.8851
rradius 26.2225
rwrist 13.2799
rhand -15.1942 10.2572
rfingers 7.12502
rthumb 10.9774 -19.4358
lclavicle -9.93923e-016 1.59028e-015
lhumerus -28.634 6.25884 86.552
lradius 31.4742
lwrist -8.84621
lhand -14.5333 23.3162
lfingers 7.12502
lthumb 11.6148 52.9743
rfemur -34.1956 5.77708 17.1528
rtibia 35.0631
rfoot -2.49846 -5.85319
rtoes 25.6503
lfemur 8.26691 2.10337 -28.2627
ltibia 40.9012
lfoot -43.6511 -12.225
ltoes -27.2697
225
root -8.77657 17.2067 4.71351 -117.756 -83.7583 120.654
lowerback 8.75557 -1.25564 -4.18629
upperback -0.160223 -2.00004 2.44938
thorax -4.85368 -0.866044 5.18282
lowerneck -17.631 -3.09878 -9.66638
upperneck 20.4111 -2.62784 3.69849
head 9.55663 -1.62097 2.52423
rclavicle -1.25234e-014 3.65764e-014
rhumerus -42.2885 -24.7748 -67.2642
rradius 26.4922
rwrist 13.143
rhand -14.4112 10.2654
rfingers 7.12502
rthumb 11.7326 -19.386
lclavicle -1.25234e-014 3.65764e-014
lhumerus -29.0412 5.94717 87.2585
lradius 31.0403
lwrist -7.70347
lhand -14.5902 23.2394
lfingers 7.12502
lthumb 11.56 52.9006
rfemur -32.7812 6.19871 17.6837
rtibia 34.5424
rfoot -3.1466 -5.90301
rtoes 26.5623
lfemur 5.97313 1.60624 -27.5841
ltibia 44.771
lfoot -45.3849 -14.772
ltoes -25.4933
226
root -9.00305 17.2636 4.70537 -120.227 -84.4944 123.085
lowerback 8.81629 -1.11337 -3.62501
upperback -0.237424 -1.74965 2.57882
thorax -5.01064 -0.749092 4.97428
lowerneck -17.5979 -3.28596 -9.44264
upperneck 20.688 -2.99989 3.83292
head 9.6723 -1.76889 2.48618
rclavicle -9.34288e-015 2.54444e-014
rhumerus -41.9537 -24.5205 -67.9846
rradius 26.6582
rwrist 12.53
rhand -13.928 10.3179
rfingers 7.12502
rthumb 12.1985 -19.3064
lclavicle -9.34288e-015 2.54444e-014
lhumerus -29.38 5.44757 87.4325
lradius 30.4214
lwrist -7.898
lhand -14.3775 22.8482
lfingers 7.12502
lthumb 11.7651 52.4978
rfemur -31.458 5.60803 18.8149
rtibia 33.8865
rfoot -3.45913 -5.6068
rtoes 26.3819
lfemur 3.54256 1.51791 -26.3811
ltibia 48.447
lfoot -47.1019 -17.2114
ltoes -23.5981
